<?xml version="1.0" encoding="UTF-8"?>
<svg xmlns="http://www.w3.org/2000/svg" 
id="Artboard_30" data-name="Artboard 30" 
viewBox="0 0 64 64" width="512" height="512">
<path fill="#fff" d="M61,12H58V10a1,1,0,0,0-1-1H54V8a7.008,7.008,0,0,0-7-7H17a7.008,7.008,0,0,0-7,7V9H7a1,1,0,0,0-1,1v2H3a1,1,0,0,0-1,1V37a2,2,0,0,0,2,2H6a2,2,0,0,0,2-2V20a1,1,0,0,0-1-1H4V14H6v2a1,1,0,0,0,1,1h3V52a5.009,5.009,0,0,0,4,4.9V61a2,2,0,0,0,2,2h6a2,2,0,0,0,2-2V57H40v4a2,2,0,0,0,2,2h6a2,2,0,0,0,2-2V56.9A5.009,5.009,0,0,0,54,52V17h3a1,1,0,0,0,1-1V14h2v5H57a1,1,0,0,0-1,1V37a2,2,0,0,0,2,2h2a2,2,0,0,0,2-2V13A1,1,0,0,0,61,12ZM6,21V37H4V21ZM38.052,47.97c-.006.01-.008.02-.013.03H25.961c-.006-.009-.007-.02-.013-.029L24.766,46H39.234ZM12,45.087l9.9.825a1,1,0,0,1,.774.481L24.233,49H12Zm29.33,1.307a1,1,0,0,1,.774-.482l9.9-.825V49H39.767ZM52,43.08l-10.062.838a3.09,3.09,0,0,0-.4.082H22.458a3.09,3.09,0,0,0-.4-.082L12,43.08V37.618l1.286.643a7.027,7.027,0,0,0,3.13.739h.049l-.3.445,1.664,1.11L18.868,39H47.584a7.027,7.027,0,0,0,3.13-.739L52,37.618Zm0-7.7-2.181,1.09A5.027,5.027,0,0,1,47.584,37H20.2l1.333-2H46V33H21a1,1,0,0,0-.832.445L17.8,37H16.416a5.027,5.027,0,0,1-2.235-.528L12,35.382V9H52ZM17,3H47a5.009,5.009,0,0,1,4.9,4H12.1A5.009,5.009,0,0,1,17,3ZM8,15V11h2v4ZM22,61H16V57h6Zm20,0V57h6v4Zm7-6H15a3,3,0,0,1-3-3V51H24.233a1.976,1.976,0,0,0,1.73-1H38.037a1.976,1.976,0,0,0,1.73,1H52v1A3,3,0,0,1,49,55Zm7-40H54V11h2Zm4,22H58V21h2Z"/></svg>
